<?xml version="1.0" encoding="UTF-8"?> <svg xmlns="http://www.w3.org/2000/svg" width="180" height="39" viewBox="0 0 180 39" fill="none"><path d="M0 29.3575V12.9929H2.8702V29.3575H0Z" fill="white"></path><path d="M17.8372 29.3575H14.1154L9.04712 17.5045H8.90101C9.08887 18.4068 9.18072 19.3779 9.18072 20.4135V29.3575H6.35645V12.9929H10.1013L15.1236 24.723H15.2467C15.1048 23.9394 15.0338 23.0059 15.0338 21.9243V12.9929H17.8372V29.3575Z" fill="white"></path><path d="M23.7797 29.3575H20.7529V12.9929H28.0965V15.6227H23.7797V20.1676H27.8042V22.7975H23.7797V29.3575Z" fill="white"></path><path d="M41.4503 21.1533C41.4503 23.8623 40.9431 25.9441 39.9265 27.3986C38.9099 28.8531 37.4571 29.5804 35.5659 29.5804C33.6663 29.5804 32.2093 28.8573 31.1928 27.409C30.1762 25.9545 29.6689 23.8602 29.6689 21.1304C29.6689 18.4213 30.1762 16.3479 31.1928 14.908C32.2093 13.4597 33.6747 12.7366 35.5868 12.7366C37.478 12.7366 38.9287 13.4638 39.9369 14.9184C40.9452 16.3667 41.4503 18.4463 41.4503 21.1533ZM32.7834 21.1533C32.7834 23.0183 33.0192 24.4395 33.4889 25.4168C33.9607 26.3942 34.6516 26.8839 35.5638 26.8839C37.4028 26.8839 38.3213 24.973 38.3213 21.1533C38.3213 17.3336 37.4091 15.4227 35.5847 15.4227C34.6579 15.4227 33.9586 15.9124 33.4889 16.8897C33.0192 17.8587 32.7834 19.282 32.7834 21.1533Z" fill="white"></path><path d="M51.6067 29.3575L50.6653 25.2273H46.3945L45.453 29.3575H42.4033L46.4613 12.9263H50.5985L54.669 29.3575H51.6067ZM50.0934 22.5308L49.2187 18.7256C49.1665 18.4943 49.0476 17.915 48.8597 16.9898C48.6802 16.0562 48.5716 15.4332 48.5341 15.1206C48.4359 15.7624 48.3128 16.4709 48.1646 17.2482C48.0143 18.0171 47.626 19.778 46.9977 22.5308H50.0934Z" fill="white"></path><path d="M61.9898 29.3575L58.8733 15.4227H58.7502C58.8921 16.498 58.9631 17.4816 58.9631 18.3776V29.3575H56.1367V12.9929H60.823L63.6264 25.8524H63.7161L66.4966 12.9929H71.2496V29.3575H68.3564V18.2651C68.3564 17.3482 68.4086 16.4063 68.513 15.4435H68.4232L65.3172 29.3554H61.9898" fill="white"></path><path d="M81.9251 29.3575L80.9837 25.2273H76.7128L75.7714 29.3575H72.7217L76.7796 12.9263H80.9169L84.9874 29.3575H81.9251ZM80.4096 22.5308L79.535 18.7256C79.4828 18.4943 79.3638 17.915 79.176 16.9898C78.9965 16.0562 78.8879 15.4332 78.8503 15.1206C78.7522 15.7624 78.6291 16.4709 78.4809 17.2482C78.3306 18.0171 77.9423 19.778 77.314 22.5308H80.4096Z" fill="white"></path><path d="M94.3577 29.3575H85.4883V27.2298L90.7235 15.6457H85.6469V12.9929H94.1907V15.1205L88.9555 26.6943H94.3598V29.3575" fill="white"></path><path d="M107.554 21.1533C107.554 23.8623 107.047 25.9441 106.03 27.3986C105.013 28.8531 103.561 29.5804 101.669 29.5804C99.7699 29.5804 98.3128 28.8573 97.2963 27.409C96.2797 25.9545 95.7725 23.8602 95.7725 21.1304C95.7725 18.4213 96.2797 16.3479 97.2963 14.908C98.3128 13.4597 99.7782 12.7366 101.69 12.7366C103.581 12.7366 105.032 13.4638 106.04 14.9184C107.049 16.3667 107.554 18.4463 107.554 21.1533ZM98.8869 21.1533C98.8869 23.0183 99.1228 24.4395 99.5924 25.4168C100.064 26.3942 100.755 26.8839 101.667 26.8839C103.506 26.8839 104.425 24.973 104.425 21.1533C104.425 17.3336 103.513 15.4227 101.688 15.4227C100.761 15.4227 100.062 15.9124 99.5924 16.8897C99.1228 17.8587 98.8869 19.282 98.8869 21.1533Z" fill="white"></path><path d="M121.433 29.3575H117.711L112.643 17.5045H112.497C112.685 18.4068 112.777 19.3779 112.777 20.4135V29.3575H109.95V12.9929H113.695L118.717 24.723H118.841C118.699 23.9394 118.628 23.0059 118.628 21.9243V12.9929H121.431V29.3575" fill="white"></path><path d="M124.898 29.3575V12.9929H127.769V29.3575H124.898Z" fill="white"></path><path d="M139.013 29.3575L138.072 25.2273H133.801L132.859 29.3575H129.81L133.868 12.9263H138.005L142.075 29.3575H139.013ZM137.5 22.5308L136.625 18.7256C136.573 18.4943 136.454 17.915 136.266 16.9898C136.086 16.0562 135.978 15.4332 135.94 15.1206C135.842 15.7624 135.719 16.4709 135.571 17.2482C135.421 18.0171 135.032 19.778 134.404 22.5308H137.5Z" fill="white"></path><path d="M156.712 37.921C152.188 37.1062 149.22 34.2575 147.802 29.375C146.698 25.5699 146.569 21.0146 147.441 16.7344C148.289 12.5854 149.547 9.51379 151.764 6.19212C153.294 3.89779 156.897 0.000976562 157.488 0.000976562C158.075 0.000976562 160.826 2.32031 162.953 4.6063C164.009 5.74201 164.93 6.66932 165.001 6.66932C165.072 6.66932 165.873 6.2463 166.781 5.72742C168.556 4.71675 171.334 3.57063 172.449 3.39141C172.977 3.30598 173.329 3.41642 173.989 3.87279C175.573 4.9689 177.79 8.19054 178.7 10.7224C179.604 13.2335 179.848 14.7193 179.955 18.3389C180.051 21.5793 180.013 22.1941 179.617 23.8528C178.016 30.5524 172.588 35.4099 164.493 37.3958C162.034 37.996 158.471 38.2377 156.712 37.921Z" fill="white"></path><path d="M156.951 37.7938C154.745 37.4562 152.476 36.3226 151.004 34.8181C148.239 31.9945 146.888 27.41 147.101 21.5668C147.314 15.707 148.84 10.8871 151.967 6.19837C153.493 3.91029 156.899 0.207275 157.48 0.207275C158.07 0.207275 159.882 1.72224 162.493 4.40208C163.819 5.76284 165.007 6.87562 165.13 6.87562C165.255 6.87562 166.048 6.4526 166.894 5.93789C168.334 5.0585 172.108 3.54145 172.853 3.54145C173.037 3.54145 173.596 3.87487 174.093 4.28122C176.224 6.02332 178.128 9.34291 179.109 13.023C179.612 14.9068 179.667 15.4778 179.681 18.962C179.698 23.1818 179.521 24.2237 178.333 26.8369C175.98 32.0153 170.405 35.96 163.42 37.3875C161.859 37.7084 157.983 37.9501 156.951 37.7938Z" fill="#BCBCBC"></path><path d="M157.659 37.5814C153.26 36.9354 150.806 35.2037 149.079 31.5257C146.752 26.5661 146.731 18.9371 149.027 12.5001C149.827 10.2578 151.478 7.18415 152.899 5.28992C154.204 3.55198 157.176 0.415771 157.523 0.415771C157.957 0.415771 160.483 2.62883 162.595 4.85856L164.8 7.18623L165.468 6.78821C167.319 5.68377 170.133 4.34801 171.454 3.94791L172.936 3.4978L173.799 4.09378C175.725 5.42537 178.063 9.22007 178.952 12.4605C179.888 15.8697 180.032 21.0356 179.28 24.1697C178.57 27.1288 176.541 30.3004 173.982 32.4488C169.567 36.1602 162.696 38.3191 157.659 37.5814Z" fill="#BCBCBC"></path><path d="M158.891 37.7563C157.167 37.5583 155.259 32.8696 154.735 27.5475C154.282 22.9505 154.794 15.4486 156.025 8.64896C156.553 5.73364 157.069 3.48516 157.259 3.27469C157.34 3.183 157.468 6.27753 157.539 10.1514C157.735 20.6791 158.399 27.535 159.68 32.257C160.185 34.1179 161.302 36.7748 161.678 37.0061C161.776 37.0665 161.857 37.2437 161.857 37.3979C161.857 37.6854 160.108 37.8959 158.891 37.7563ZM164.154 36.4497C169.804 32.9592 171.908 27.7183 170.708 20.1331C170.088 16.2092 168.671 12.6604 166.272 9.02197L165.007 7.10274L166.239 6.35463C167.88 5.36063 170.238 4.28536 171.733 3.854L172.948 3.50392L173.804 4.09573C175.726 5.42315 178.064 9.22202 178.951 12.4583C179.886 15.8674 180.03 21.0333 179.279 24.1675C177.718 30.6712 171.391 35.8516 163.108 37.4062C162.502 37.5229 162.676 37.3645 164.154 36.4497Z" fill="white"></path><path d="M158.079 37.3313C157.254 36.6791 156.094 34.2847 155.503 32.0154C154.117 26.6932 154.309 18.1327 156.023 8.64701C156.551 5.73169 157.066 3.48321 157.256 3.27274C157.338 3.18105 157.465 6.27558 157.536 10.1495C157.732 20.6896 158.396 27.5351 159.682 32.2696C160.181 34.1097 161.122 36.3561 161.669 37.0146C161.805 37.1771 161.876 37.348 161.828 37.3959C161.78 37.4438 161.039 37.5439 160.181 37.621C158.797 37.746 158.561 37.7147 158.079 37.3313ZM163.318 37.025C163.318 36.9604 163.865 36.6186 164.531 36.2644C169.031 33.87 171.513 28.8979 171.14 23.0277C170.808 17.8285 169.24 13.1711 166.424 9.02002C165.863 8.19273 165.403 7.45713 165.403 7.38627C165.403 6.67776 170.401 4.16671 172.471 3.83538C173.242 3.71243 173.338 3.76453 174.515 4.92732C176.738 7.12371 178.258 10.0119 179.105 13.6504C179.596 15.753 179.658 22.1567 179.208 23.9655C178.788 25.6513 177.467 28.3666 176.381 29.7732C174.258 32.528 170.837 34.8515 166.746 36.3186C165.291 36.8416 163.318 37.248 163.318 37.025Z" fill="white"></path><path d="M168.537 33.3761C168.537 33.2782 168.727 33.026 168.958 32.8156C169.541 32.2904 170.601 30.0649 170.991 28.5478C171.68 25.8784 171.593 20.9522 170.804 18.0243C170.68 17.5659 170.543 17.0033 170.499 16.774C170.202 15.232 167.944 10.3453 167.063 9.33882C166.71 8.93456 165.775 7.25705 165.869 7.19245C166.03 7.082 168.38 6.66315 169.488 6.54645L170.756 6.41309L171.419 8.08851C173.388 13.0627 174.204 16.749 174.219 20.7334C174.235 25.197 173.185 28.377 170.676 31.4652C169.486 32.9323 168.537 33.7804 168.537 33.3761Z" fill="white"></path></svg> 